<svg width="272" height="80" viewBox="0 0 272 80" fill="none" xmlns="http://www.w3.org/2000/svg">
<path d="M0 28C0 14.8007 0 8.20101 4.1005 4.1005C8.20101 0 14.8007 0 28 0H225.052C231.421 0 234.606 0 237.402 1.29293C240.198 2.58587 242.261 5.01253 246.386 9.86584L256.586 21.8658C263.946 30.5246 267.626 34.8539 267.626 40C267.626 45.1461 263.946 49.4754 256.586 58.1342L246.386 70.1341C242.261 74.9875 240.198 77.4141 237.402 78.7071C234.606 80 231.421 80 225.052 80H28C14.8007 80 8.20101 80 4.1005 75.8995C0 71.799 0 65.1993 0 52V28Z" fill="white"/>
<g clip-path="url(#clip0_1135_180320)">
<path d="M46.7169 12.7891H20.7588C17.1345 12.7891 14.1953 15.82 14.1953 19.5578V41.6932C14.1953 45.431 17.1345 48.462 20.7588 48.462H46.721C48.9142 48.462 50.9615 47.3318 52.1777 45.4509L59.9291 33.4708C61.0521 31.7337 61.0521 29.5134 59.9291 27.7802L52.1777 15.8001C50.9575 13.9192 48.9102 12.7891 46.7169 12.7891Z" fill="#8ADBAB"/>
<path d="M47.2567 32.1769H21.254C20.4837 32.1769 19.8594 31.5619 19.8594 30.8032C19.8594 30.0444 20.4837 29.4294 21.254 29.4294H47.2526C48.0229 29.4294 48.6472 30.0444 48.6472 30.8032C48.6513 31.5619 48.0269 32.1769 47.2567 32.1769Z" fill="#5236AF"/>
<path d="M47.1906 42.4119C43.6109 42.4119 41.7379 41.2698 40.0879 40.2674C38.5595 39.337 37.2419 38.5343 34.4527 38.5343C31.6636 38.5343 30.346 39.337 28.8176 40.2674C27.1676 41.2738 25.2946 42.4119 21.7149 42.4119C20.9446 42.4119 20.3203 41.7969 20.3203 41.0382C20.3203 40.2794 20.9446 39.6644 21.7149 39.6644C24.5041 39.6644 25.8217 38.8618 27.35 37.9313C29 36.925 30.873 35.7869 34.4527 35.7869C38.0325 35.7869 39.9054 36.929 41.5554 37.9313C43.0838 38.8618 44.4014 39.6644 47.1906 39.6644C47.9609 39.6644 48.5852 40.2794 48.5852 41.0382C48.5852 41.7969 47.9609 42.4119 47.1906 42.4119Z" fill="#5236AF"/>
<path d="M34.447 26.2187L28.0781 22.3372L22.4429 25.7715C21.7862 26.1708 20.9267 25.9712 20.5213 25.3242C20.1159 24.6773 20.3186 23.8307 20.9754 23.4314L28.0781 19.1025L34.447 22.9841L40.8159 19.1025L47.9186 23.4314C48.5754 23.8307 48.7781 24.6773 48.3727 25.3242C47.9672 25.9712 47.1078 26.1708 46.451 25.7715L40.8159 22.3372L34.447 26.2187Z" fill="#5236AF"/>
<path d="M70.2132 60.4658V64.0798H69.4348V61.3524C69.4307 61.2845 69.447 61.2126 69.4753 61.1487L69.4672 61.1407C69.3983 61.1687 69.3213 61.1806 69.2443 61.1726H67.9145C67.8416 61.1806 67.7605 61.1687 67.6916 61.1407L67.6834 61.1487C67.7118 61.2126 67.724 61.2805 67.724 61.3524V64.0798H66.9375V60.4658H70.2132Z" fill="#5236AF"/>
<path d="M75.0788 62.275C75.0788 63.4051 74.341 64.2038 73.295 64.2038C72.6829 64.2038 72.2085 63.9123 71.945 63.3811L71.9126 63.3891C71.9653 63.6407 71.9896 63.8963 71.9815 64.1479V65.6534H71.2031V60.4739H71.9572C71.9653 60.7056 71.9491 60.9412 71.9126 61.1688L71.945 61.1768C72.1883 60.6576 72.7193 60.3342 73.295 60.3541C74.3369 60.3502 75.0788 61.1528 75.0788 62.275ZM71.9531 62.275C71.9531 62.9858 72.4437 63.481 73.145 63.481C73.8464 63.481 74.2477 63.0297 74.2477 62.275C74.2477 61.5202 73.8383 61.069 73.145 61.069C72.4518 61.069 71.9531 61.5641 71.9531 62.275Z" fill="#5236AF"/>
<path d="M79.9747 62.275C79.9747 63.3772 79.1234 64.2038 77.9639 64.2038C76.8045 64.2038 75.9531 63.3812 75.9531 62.275C75.9531 61.1688 76.8045 60.3462 77.9639 60.3462C79.1234 60.3502 79.9747 61.1728 79.9747 62.275ZM76.7801 62.275C76.7801 62.9778 77.2585 63.4491 77.9639 63.4491C78.6693 63.4491 79.1518 62.9778 79.1518 62.275C79.1518 61.5722 78.6734 61.1009 77.9639 61.1009C77.2545 61.1009 76.7801 61.5722 76.7801 62.275Z" fill="#5236AF"/>
<path d="M80.7734 64.0879V60.4739H83.1572V61.1847H81.7424C81.6694 61.1927 81.5883 61.1807 81.5194 61.1528L81.5113 61.1607C81.5397 61.2246 81.5559 61.2925 81.5518 61.3644V64.0919H80.7734V64.0879Z" fill="#5236AF"/>
<path d="M87.9069 62.275C87.9069 63.4051 87.1691 64.2038 86.1231 64.2038C85.511 64.2038 85.0367 63.9123 84.7731 63.3811L84.7407 63.3891C84.7934 63.6407 84.8177 63.8963 84.8096 64.1479V65.6534H84.0312V60.4739H84.7853C84.7934 60.7056 84.7772 60.9412 84.7367 61.1688L84.7691 61.1768C85.0123 60.6576 85.5434 60.3342 86.1191 60.3541C87.165 60.3502 87.9069 61.1528 87.9069 62.275ZM84.7813 62.275C84.7813 62.9858 85.2718 63.481 85.9731 63.481C86.6745 63.481 87.0758 63.0297 87.0758 62.275C87.0758 61.5202 86.6623 61.069 85.9731 61.069C85.284 61.069 84.7813 61.5641 84.7813 62.275Z" fill="#5236AF"/>
<path d="M92.0138 61.8237V64.088H91.2273C91.2152 63.8883 91.2517 63.6966 91.3368 63.5169L91.3044 63.501C91.0611 63.9442 90.5868 64.2198 90.0719 64.2038C89.2895 64.2038 88.7422 63.6926 88.7422 62.9339C88.7422 62.1392 89.2773 61.656 90.076 61.656C90.6192 61.656 91.0449 61.8757 91.2922 62.259L91.3165 62.243C91.276 62.0753 91.2557 61.9116 91.2557 61.7399C91.2233 61.2886 90.9395 61.057 90.4044 61.057C90.0435 61.069 89.6868 61.1329 89.3503 61.2527L89.1354 60.5658C89.5652 60.4261 90.0152 60.3502 90.4652 60.3462C91.5314 60.3502 92.0138 60.8054 92.0138 61.8237ZM89.5733 62.9419C89.5733 63.3332 89.8895 63.5768 90.3557 63.5768C90.8422 63.5768 91.1908 63.3173 91.1908 62.9339C91.1908 62.5505 90.8422 62.291 90.3638 62.291C89.8895 62.291 89.5733 62.5585 89.5733 62.9419Z" fill="#5236AF"/>
<path d="M94.8161 64.124L94.1269 62.5905C93.9729 62.2471 93.9202 62.1353 93.8918 61.9715H93.8594C93.8432 62.1912 93.8026 62.291 93.7013 62.5985L93.2026 64.088H92.3594L93.6932 60.4341H93.904L94.7675 62.3309C94.8364 62.4707 94.8851 62.6105 94.9175 62.7582H94.9499C94.9783 62.6065 95.0269 62.4627 95.104 62.3309L95.9675 60.4341H96.1742L97.508 64.088H96.6648L96.1661 62.5985C96.0648 62.291 96.0242 62.1912 96.008 61.9715H95.9756C95.9432 62.1353 95.8905 62.2471 95.7364 62.5905L95.0472 64.124H94.8161Z" fill="#5236AF"/>
<path d="M100.363 64.124L99.6738 62.5905C99.5198 62.2471 99.463 62.1353 99.4346 61.9715H99.4022C99.386 62.1912 99.3454 62.291 99.2441 62.5985L98.7454 64.088H97.9062L99.2441 60.4341H99.4549L100.318 62.3309C100.387 62.4707 100.436 62.6105 100.468 62.7582H100.501C100.529 62.6065 100.578 62.4627 100.655 62.3309L101.518 60.4341H101.729L103.059 64.088H102.22L101.717 62.5985C101.616 62.291 101.575 62.1912 101.559 61.9715H101.522C101.49 62.1353 101.437 62.2471 101.287 62.5905L100.594 64.124H100.363Z" fill="#5236AF"/>
<path d="M106.775 61.8237V64.088H105.989C105.977 63.8883 106.013 63.6966 106.098 63.5169L106.066 63.501C105.823 63.9442 105.348 64.2198 104.833 64.2038C104.051 64.2038 103.508 63.6926 103.508 62.9339C103.508 62.1392 104.043 61.656 104.842 61.656C105.381 61.656 105.811 61.8757 106.058 62.259L106.082 62.243C106.042 62.0753 106.021 61.9116 106.021 61.7399C105.989 61.2886 105.705 61.057 105.17 61.057C104.809 61.069 104.452 61.1329 104.116 61.2527L103.901 60.5658C104.331 60.4261 104.781 60.3502 105.231 60.3462C106.297 60.3502 106.775 60.8054 106.775 61.8237ZM104.335 62.9419C104.335 63.3332 104.651 63.5768 105.117 63.5768C105.604 63.5768 105.952 63.3173 105.952 62.9339C105.952 62.5505 105.604 62.291 105.125 62.291C104.651 62.291 104.335 62.5585 104.335 62.9419Z" fill="#5236AF"/>
<path d="M72.5359 27.7083C71.4616 27.7083 70.4886 27.4487 69.6211 26.9295C68.7535 26.4104 68.0724 25.6636 67.5778 24.6932C67.0832 23.7229 66.8359 22.5847 66.8359 21.2749V21.2549C66.8359 19.3142 67.1157 17.7008 67.6751 16.423C68.2346 15.1411 69.0535 14.1907 70.1359 13.5637C71.2184 12.9367 72.5562 12.6252 74.1454 12.6252H77.263V15.157H74.4657C72.99 15.157 71.863 15.4925 71.0886 16.1594C70.3143 16.8263 69.8967 17.7607 69.84 18.9548H69.9494C70.2494 18.5474 70.6873 18.2 71.2589 17.9085C71.8305 17.621 72.5076 17.4772 73.2819 17.4772C74.1981 17.4772 75.0332 17.6928 75.7873 18.1201C76.5413 18.5514 77.1332 19.1464 77.5711 19.9052C78.0089 20.6639 78.2278 21.5105 78.2278 22.437C78.2278 23.4234 77.9927 24.3139 77.5184 25.1165C77.044 25.9192 76.3751 26.5502 75.5076 27.0174C74.644 27.4726 73.6508 27.7083 72.5359 27.7083ZM72.5359 25.1725C73.0386 25.1725 73.4805 25.0606 73.8697 24.837C74.2589 24.6134 74.563 24.2899 74.7859 23.8746C75.0089 23.4593 75.1184 22.9761 75.1184 22.429C75.1184 21.9099 75.0089 21.4466 74.7859 21.0473C74.563 20.644 74.2589 20.3365 73.8697 20.1168C73.4846 19.8972 73.0386 19.7894 72.5359 19.7894C72.0332 19.7894 71.5913 19.8972 71.2022 20.1168C70.817 20.3365 70.5089 20.644 70.29 21.0473C70.067 21.4466 69.9576 21.9099 69.9576 22.429C69.9576 22.9761 70.067 23.4593 70.29 23.8746C70.513 24.2899 70.817 24.6094 71.2022 24.837C71.5873 25.0606 72.0332 25.1725 72.5359 25.1725Z" fill="#5236AF"/>
<path d="M85.3681 27.7084C84.237 27.7084 83.2113 27.4568 82.291 26.9497C81.3748 26.4425 80.6532 25.7556 80.1302 24.8811C79.6073 24.0105 79.3438 23.0521 79.3438 22.0098C79.3438 20.9676 79.6032 20.0131 80.1302 19.1386C80.6532 18.268 81.3748 17.5772 82.291 17.07C83.2073 16.5629 84.2329 16.3113 85.3681 16.3113C86.4992 16.3113 87.5248 16.5669 88.441 17.07C89.3573 17.5772 90.0789 18.268 90.6019 19.1386C91.1248 20.0092 91.3883 20.9676 91.3883 22.0098C91.3883 23.0521 91.1248 24.0065 90.6019 24.8811C90.0789 25.7516 89.3573 26.4425 88.441 26.9497C87.5248 27.4528 86.4992 27.7084 85.3681 27.7084ZM85.3681 25.1726C85.8992 25.1726 86.3856 25.0408 86.8316 24.7733C87.2775 24.5057 87.6262 24.1343 87.8856 23.6551C88.1451 23.1759 88.2708 22.6288 88.2708 22.0098C88.2708 21.3909 88.141 20.8438 87.8856 20.3646C87.6262 19.8854 87.2775 19.514 86.8316 19.2464C86.3856 18.9789 85.8992 18.8471 85.3681 18.8471C84.837 18.8471 84.3505 18.9789 83.9046 19.2464C83.4586 19.514 83.11 19.8854 82.8505 20.3646C82.5911 20.8438 82.4613 21.3909 82.4613 22.0098C82.4613 22.6288 82.5911 23.1759 82.8505 23.6551C83.11 24.1343 83.4586 24.5057 83.9046 24.7733C84.3465 25.0408 84.837 25.1726 85.3681 25.1726Z" fill="#5236AF"/>
<path d="M92.2734 27.3886L94.4302 19.3899C94.868 17.7606 96.368 16.6265 98.0788 16.6265C99.7897 16.6265 101.29 17.7606 101.727 19.3899L103.884 27.3886H100.872L98.7559 19.6694C98.6748 19.3659 98.3951 19.1583 98.0788 19.1583C97.7626 19.1583 97.4829 19.3699 97.4018 19.6694L95.2856 27.3886H92.2734Z" fill="#5236AF"/>
<path d="M105.18 27.3886V16.6265H108.192V20.0049H110.665C111.54 20.0049 112.311 20.1686 112.976 20.5C113.645 20.8315 114.159 21.2788 114.524 21.8418C114.889 22.4049 115.072 23.0239 115.072 23.6987C115.072 24.3736 114.889 24.9926 114.524 25.5557C114.159 26.1187 113.645 26.566 112.976 26.8974C112.311 27.2289 111.54 27.3926 110.665 27.3926H105.18V27.3886ZM110.446 24.9647C110.92 24.9647 111.289 24.8488 111.553 24.6172C111.816 24.3856 111.95 24.0781 111.95 23.6987C111.95 23.3194 111.816 23.0119 111.553 22.7803C111.289 22.5487 110.92 22.4328 110.446 22.4328H108.188V24.9647H110.446Z" fill="#5236AF"/>
<path d="M139.891 27.7084C138.801 27.7084 137.804 27.4568 136.904 26.9497C136 26.4425 135.286 25.7556 134.763 24.8811C134.24 24.0065 133.977 23.0521 133.977 22.0098C133.977 20.9676 134.24 20.0131 134.763 19.1386C135.286 18.268 136 17.5772 136.904 17.07C137.808 16.5629 138.805 16.3113 139.891 16.3113C141.01 16.3113 142.008 16.5669 142.891 17.07C143.771 17.5772 144.46 18.268 144.955 19.1386C145.45 20.0092 145.697 20.9676 145.697 22.0098V22.6448H137.094C137.167 23.096 137.333 23.5153 137.601 23.9027C137.864 24.2901 138.201 24.5976 138.602 24.8292C139.004 25.0608 139.433 25.1766 139.891 25.1766C140.524 25.1766 141.051 25.0528 141.473 24.8092C141.894 24.5616 142.194 24.2661 142.364 23.9107H145.591C145.259 24.9649 144.614 25.8635 143.658 26.6022C142.693 27.337 141.44 27.7084 139.891 27.7084ZM142.474 20.8478C142.401 20.4804 142.247 20.1489 142.012 19.8454C141.777 19.5419 141.473 19.3023 141.108 19.1186C140.743 18.9349 140.337 18.8431 139.891 18.8431C139.445 18.8431 139.04 18.9349 138.667 19.1186C138.294 19.3023 137.986 19.5459 137.743 19.8454C137.5 20.1489 137.321 20.4804 137.204 20.8478H142.474Z" fill="#5236AF"/>
<path d="M163.138 23.9064C162.838 24.1181 162.444 24.2938 161.966 24.4335C161.484 24.5733 160.944 24.6452 160.34 24.6452C159.007 24.6452 157.957 24.2818 157.19 23.559C156.424 22.8322 156.039 21.8578 156.039 20.6358V16.6265H159.051V20.4242C159.051 20.9593 159.209 21.3746 159.526 21.6701C159.842 21.9656 160.292 22.1134 160.88 22.1134C161.366 22.1134 161.808 22.0575 162.201 21.9457C162.594 21.8338 162.907 21.6941 163.138 21.5224V16.6265H166.15V27.3886H163.138V23.9064Z" fill="#5236AF"/>
<path d="M173.962 27.7084C172.871 27.7084 171.874 27.4568 170.974 26.9497C170.07 26.4425 169.356 25.7556 168.833 24.8811C168.31 24.0065 168.047 23.0521 168.047 22.0098C168.047 20.9676 168.31 20.0131 168.833 19.1386C169.356 18.268 170.07 17.5772 170.974 17.07C171.878 16.5629 172.875 16.3113 173.962 16.3113C175.081 16.3113 176.078 16.5669 176.962 17.07C177.841 17.5772 178.531 18.268 179.025 19.1386C179.52 20.0092 179.767 20.9676 179.767 22.0098V22.6448H171.164C171.237 23.096 171.404 23.5153 171.671 23.9027C171.935 24.2901 172.271 24.5976 172.673 24.8292C173.074 25.0608 173.504 25.1766 173.962 25.1766C174.594 25.1766 175.121 25.0528 175.543 24.8092C175.964 24.5616 176.264 24.2661 176.435 23.9107H179.662C179.329 24.9649 178.685 25.8635 177.728 26.6022C176.763 27.337 175.51 27.7084 173.962 27.7084ZM176.54 20.8478C176.467 20.4804 176.313 20.1489 176.078 19.8454C175.843 19.5419 175.539 19.3023 175.174 19.1186C174.809 18.9349 174.404 18.8431 173.958 18.8431C173.512 18.8431 173.106 18.9349 172.733 19.1186C172.36 19.3023 172.052 19.5459 171.809 19.8454C171.566 20.1489 171.387 20.4804 171.27 20.8478H176.54Z" fill="#5236AF"/>
<path d="M181.57 27.3886V16.6265H185.653L188.235 22.4289H188.559L191.138 16.6265H195.224V27.3886H192.212V22.0095L192.322 20.1087H192.212L189.849 25.384H186.946L184.578 20.1087H184.473L184.578 22.0095V27.3886H181.57Z" fill="#5236AF"/>
<path d="M83.6412 48.2823L84.825 44.2729H82.4574L79.5547 33.5107H82.6722L84.825 41.7411H85.6844L88.052 33.5107H91.1695L86.7587 48.2823H83.6412Z" fill="#5236AF"/>
<path d="M96.0005 44.2847V36.0544H92.3438V33.5186H102.665V36.0544H99.0127V44.2847H96.0005Z" fill="#5236AF"/>
<path d="M109.407 44.5922C108.317 44.5922 107.319 44.3406 106.419 43.8334C105.515 43.3263 104.802 42.6394 104.279 41.7649C103.756 40.8943 103.492 39.9359 103.492 38.8936C103.492 37.8514 103.752 36.8969 104.279 36.0224C104.802 35.1518 105.515 34.461 106.419 33.9538C107.323 33.4467 108.321 33.1951 109.407 33.1951C110.526 33.1951 111.523 33.4506 112.407 33.9538C113.291 34.461 113.976 35.1518 114.471 36.0224C114.965 36.8929 115.212 37.8514 115.212 38.8936V39.5286H106.61C106.683 39.9798 106.849 40.3991 107.117 40.7865C107.38 41.1738 107.717 41.4813 108.118 41.713C108.519 41.9446 108.949 42.0604 109.407 42.0604C110.039 42.0604 110.567 41.9366 110.988 41.693C111.41 41.4454 111.71 41.1499 111.88 40.7945H115.107C114.779 41.8487 114.13 42.7472 113.173 43.486C112.208 44.2208 110.952 44.5922 109.407 44.5922ZM111.985 37.7316C111.912 37.3642 111.758 37.0327 111.523 36.7292C111.288 36.4257 110.984 36.1861 110.619 36.0024C110.254 35.8187 109.849 35.7269 109.403 35.7269C108.957 35.7269 108.548 35.8187 108.179 36.0024C107.806 36.1861 107.498 36.4297 107.254 36.7292C107.011 37.0327 106.833 37.3642 106.719 37.7316H111.985Z" fill="#5236AF"/>
<path d="M139.891 44.5922C138.801 44.5922 137.804 44.3406 136.904 43.8334C136 43.3263 135.286 42.6394 134.763 41.7649C134.24 40.8943 133.977 39.9359 133.977 38.8936C133.977 37.8514 134.24 36.8969 134.763 36.0224C135.286 35.1518 136 34.461 136.904 33.9538C137.808 33.4467 138.805 33.1951 139.891 33.1951C141.01 33.1951 142.008 33.4506 142.891 33.9538C143.771 34.461 144.46 35.1518 144.955 36.0224C145.45 36.8929 145.697 37.8514 145.697 38.8936V39.5286H137.094C137.167 39.9798 137.333 40.3991 137.601 40.7865C137.864 41.1738 138.201 41.4813 138.602 41.713C139.004 41.9446 139.433 42.0604 139.891 42.0604C140.524 42.0604 141.051 41.9366 141.473 41.693C141.894 41.4454 142.194 41.1499 142.364 40.7945H145.591C145.259 41.8487 144.614 42.7472 143.658 43.486C142.693 44.2208 141.44 44.5922 139.891 44.5922ZM142.474 37.7316C142.401 37.3642 142.247 37.0327 142.012 36.7292C141.777 36.4257 141.473 36.1861 141.108 36.0024C140.743 35.8187 140.337 35.7269 139.891 35.7269C139.445 35.7269 139.04 35.8187 138.667 36.0024C138.294 36.1861 137.986 36.4297 137.743 36.7292C137.5 37.0327 137.321 37.3642 137.204 37.7316H142.474Z" fill="#5236AF"/>
<path d="M202.993 44.5922C201.902 44.5922 200.905 44.3406 200.005 43.8334C199.101 43.3263 198.388 42.6394 197.865 41.7649C197.342 40.8943 197.078 39.9359 197.078 38.8936C197.078 37.8514 197.342 36.8969 197.865 36.0224C198.388 35.1518 199.101 34.461 200.005 33.9538C200.909 33.4467 201.907 33.1951 202.993 33.1951C204.112 33.1951 205.109 33.4506 205.993 33.9538C206.873 34.461 207.562 35.1518 208.056 36.0224C208.551 36.8929 208.798 37.8514 208.798 38.8936V39.5286H200.196C200.269 39.9798 200.435 40.3991 200.702 40.7865C200.966 41.1738 201.302 41.4813 201.704 41.713C202.105 41.9446 202.535 42.0604 202.993 42.0604C203.625 42.0604 204.152 41.9366 204.574 41.693C204.996 41.4454 205.296 41.1499 205.466 40.7945H208.693C208.361 41.8487 207.716 42.7472 206.759 43.486C205.794 44.2208 204.542 44.5922 202.993 44.5922ZM205.571 37.7316C205.498 37.3642 205.344 37.0327 205.109 36.7292C204.874 36.4257 204.57 36.1861 204.205 36.0024C203.84 35.8187 203.435 35.7269 202.989 35.7269C202.543 35.7269 202.138 35.8187 201.765 36.0024C201.392 36.1861 201.084 36.4297 200.84 36.7292C200.597 37.0327 200.419 37.3642 200.301 37.7316H205.571Z" fill="#5236AF"/>
<path d="M153.509 44.5922C152.418 44.5922 151.421 44.3406 150.521 43.8334C149.617 43.3263 148.903 42.6394 148.38 41.7649C147.857 40.8943 147.594 39.9359 147.594 38.8936C147.594 37.8514 147.853 36.8969 148.38 36.0224C148.903 35.1518 149.617 34.461 150.521 33.9538C151.425 33.4467 152.418 33.1951 153.509 33.1951C154.571 33.1951 155.487 33.3947 156.261 33.7981C157.036 34.1974 157.652 34.7165 158.11 35.3515C158.568 35.9864 158.901 36.6733 159.099 37.4201H155.982C155.811 36.9568 155.511 36.5575 155.09 36.23C154.668 35.8986 154.141 35.7349 153.509 35.7349C153.006 35.7349 152.54 35.8706 152.11 36.1342C151.68 36.4018 151.34 36.7731 151.088 37.2523C150.837 37.7316 150.711 38.2786 150.711 38.8976C150.711 39.5166 150.837 40.0637 151.088 40.5429C151.34 41.0221 151.68 41.3935 152.11 41.661C152.54 41.9286 153.006 42.0604 153.509 42.0604C154.141 42.0604 154.668 41.8967 155.09 41.5652C155.511 41.2337 155.811 40.8384 155.982 40.3712H159.099C158.929 41.1179 158.613 41.8048 158.155 42.4398C157.696 43.0747 157.076 43.5898 156.294 43.9932C155.511 44.3885 154.583 44.5922 153.509 44.5922Z" fill="#5236AF"/>
<path d="M163.649 44.2729V36.0425H159.992V33.5107H170.314V36.0425H166.661V44.2729H163.649Z" fill="#5236AF"/>
<path d="M172.32 44.2729V33.5107H178.341C179.099 33.5107 179.747 33.6265 180.287 33.8582C180.826 34.0898 181.227 34.4053 181.491 34.7966C181.754 35.192 181.888 35.6392 181.888 36.1464C181.888 36.961 181.673 37.5321 181.243 37.8555C180.814 38.179 180.416 38.3827 180.06 38.4665V38.5744C180.258 38.6023 180.538 38.6862 180.899 38.8259C181.255 38.9657 181.6 39.2333 181.932 39.6286C182.261 40.024 182.427 40.5511 182.427 41.21C182.427 42.1125 182.07 42.8473 181.353 43.4143C180.635 43.9854 179.634 44.2689 178.341 44.2689H172.32V44.2729ZM177.911 37.6279C178.227 37.6279 178.482 37.5361 178.685 37.3524C178.884 37.1687 178.985 36.9451 178.985 36.6775C178.985 36.4099 178.884 36.1863 178.685 36.0026C178.482 35.8189 178.227 35.7271 177.911 35.7271H175.332V37.6279H177.911ZM178.126 42.0566C178.499 42.0566 178.807 41.9448 179.05 41.7211C179.293 41.4975 179.415 41.222 179.415 40.8985C179.415 40.575 179.293 40.2995 179.05 40.0759C178.807 39.8522 178.499 39.7404 178.126 39.7404H175.328V42.0606H178.126V42.0566Z" fill="#5236AF"/>
<path d="M184.469 44.2729V33.5107H187.477V38.155L187.371 40.0519H187.586L191.993 33.5107H195.22V44.2729H192.208V39.6326L192.317 37.7317H192.103L187.692 44.2729H184.469Z" fill="#5236AF"/>
<path d="M117.125 44.2408V33.5625H120.113V41.729H123.097V33.5625H126.084V41.729H129.072V33.5625H132.06V44.2408H117.125Z" fill="#5236AF"/>
<path d="M117.125 27.4007V16.7224H120.113V24.8889H123.097V16.7224H126.084V24.8889H129.072V16.7224H132.06V27.4007H117.125Z" fill="#5236AF"/>
<path d="M148.891 29.8967H147.047L148.137 24.9648H150.509L148.891 29.8967Z" fill="#5236AF"/>
<path d="M66.9297 44.2847V33.5186H77.4662V44.2847H74.454V36.0504H69.9378V44.2847H66.9297Z" fill="#5236AF"/>
<path d="M114.069 62.275C114.069 63.3772 113.217 64.2038 112.058 64.2038C110.898 64.2038 110.047 63.3812 110.047 62.275C110.047 61.1688 110.898 60.3462 112.058 60.3462C113.217 60.3462 114.069 61.1728 114.069 62.275ZM110.878 62.275C110.878 62.9778 111.356 63.4491 112.062 63.4491C112.767 63.4491 113.25 62.9778 113.25 62.275C113.25 61.5722 112.771 61.1009 112.062 61.1009C111.352 61.1009 110.874 61.5722 110.878 62.275Z" fill="#5236AF"/>
<path d="M114.754 60.4658H118.22V61.1766H117.065C116.992 61.1846 116.911 61.1726 116.842 61.1447L116.834 61.1527C116.862 61.2166 116.874 61.2845 116.874 61.3563V64.0838H116.092V61.3563C116.088 61.2885 116.104 61.2166 116.132 61.1527L116.124 61.1447C116.055 61.1726 115.974 61.1846 115.901 61.1766H114.75V60.4658H114.754Z" fill="#5236AF"/>
<path d="M124.361 59.0044C125.906 59.0044 127.154 60.1186 127.154 61.64C127.154 63.1455 125.881 64.2876 124.442 64.2876C123.765 64.2876 123.112 64.096 122.618 63.5489H122.561V67.3825H121.531V62.0593C121.527 60.2064 122.622 59.0084 124.361 59.0044ZM124.345 63.4051C125.362 63.4051 126.068 62.6104 126.068 61.648C126.068 60.6856 125.387 59.8989 124.345 59.8989C123.307 59.8989 122.597 60.6816 122.597 61.636C122.597 62.6064 123.319 63.4051 124.345 63.4051Z" fill="#7663A9"/>
<path d="M128.109 61.6482C128.109 60.1267 129.403 59.0085 130.923 59.0085C132.443 59.0085 133.745 60.1307 133.745 61.6482C133.745 63.1657 132.451 64.2878 130.923 64.2878C129.395 64.2918 128.109 63.1657 128.109 61.6482ZM130.927 63.4013C131.957 63.4013 132.654 62.6186 132.654 61.6522C132.654 60.6818 131.957 59.8991 130.927 59.8991C129.897 59.8991 129.204 60.6698 129.204 61.6522C129.2 62.6266 129.893 63.4013 130.927 63.4013Z" fill="#7663A9"/>
<path d="M137.533 64.2915C135.916 64.2915 134.688 63.1773 134.688 61.6518C134.688 60.1264 135.888 59.0122 137.497 59.0122C138.733 59.0122 139.881 59.6711 140.177 60.925H139.119C138.859 60.2541 138.243 59.9067 137.525 59.9067C136.439 59.9067 135.778 60.7054 135.778 61.6758C135.778 62.6622 136.459 63.4169 137.546 63.4169C138.251 63.4169 138.892 63.0974 139.139 62.3667H140.205C139.824 63.6805 138.721 64.2915 137.533 64.2915Z" fill="#7663A9"/>
<path d="M143.814 63.5569L142.119 60.0747H142.091V64.1799H141.102V59.1123H142.683L144.357 62.5786H144.385L146.064 59.1123H147.645V64.1799H146.648V60.0747H146.619L144.929 63.5569H143.814Z" fill="#7663A9"/>
<path d="M148.562 61.6482C148.562 60.1267 149.856 59.0085 151.384 59.0085C152.912 59.0085 154.198 60.1307 154.198 61.6482C154.198 63.1657 152.904 64.2878 151.384 64.2878C149.864 64.2918 148.562 63.1657 148.562 61.6482ZM151.38 63.4013C152.406 63.4013 153.103 62.6186 153.103 61.6522C153.103 60.6818 152.406 59.8991 151.38 59.8991C150.354 59.8991 149.653 60.6698 149.653 61.6522C149.649 62.6266 150.35 63.4013 151.38 63.4013Z" fill="#7663A9"/>
<path d="M155.109 64.2197V63.1695H155.13C155.353 63.1695 155.563 63.0776 155.717 62.9139C155.912 62.7022 156.005 62.3269 156.107 61.7758L156.253 60.9651C156.419 60.0307 156.763 59.0842 158.186 59.0842H160.193V64.1758H159.163V60.0267H158.365C157.566 60.0267 157.396 60.2463 157.201 61.3205L157.072 62.0793C156.954 62.7741 156.776 63.3771 156.411 63.7565C156.131 64.048 155.742 64.2117 155.219 64.2117H155.109V64.2197Z" fill="#7663A9"/>
<path d="M161.039 61.6482C161.039 60.1267 162.332 59.0085 163.861 59.0085C165.389 59.0085 166.682 60.1307 166.682 61.6482C166.682 63.1657 165.389 64.2878 163.861 64.2878C162.332 64.2878 161.039 63.1657 161.039 61.6482ZM163.861 63.4013C164.89 63.4013 165.584 62.6186 165.584 61.6522C165.584 60.6818 164.886 59.8991 163.861 59.8991C162.835 59.8991 162.134 60.6698 162.134 61.6522C162.134 62.6266 162.831 63.4013 163.861 63.4013Z" fill="#7663A9"/>
<path d="M168.149 65.4097H167.156V63.2373H167.825C168.121 62.9099 168.271 62.4267 168.413 61.8397L168.636 60.8972C168.851 59.9907 169.244 59.0842 170.517 59.0842H172.516V63.2334H173.258V65.4058H172.264V64.1718H168.149V65.4097ZM171.502 63.2613V60.0227H170.537C169.909 60.0227 169.698 60.5179 169.577 61.037L169.349 62.0154C169.228 62.5545 169.037 63.0057 168.839 63.1974V63.2693L171.502 63.2613Z" fill="#7663A9"/>
<path d="M176.845 64.2876C175.208 64.2876 174.016 63.1735 174.016 61.648C174.016 60.1225 175.216 59.0084 176.809 59.0084C178.045 59.0084 179.525 59.8031 179.525 61.7319V61.9435H175.041C175.151 62.7941 175.824 63.4091 176.837 63.4091C177.441 63.4091 178.159 63.1895 178.362 62.6783H179.42C179.095 63.7845 177.895 64.2876 176.845 64.2876ZM175.062 57.2593H176.128V58.3095H175.062V57.2593ZM178.455 61.1648C178.293 60.3941 177.693 59.8829 176.797 59.8829C175.901 59.8829 175.28 60.434 175.094 61.1648H178.455ZM177.376 57.2593H178.443V58.3095H177.376V57.2593Z" fill="#7663A9"/>
<path d="M184.387 59.1123V61.129H185.243L186.459 59.1123H187.586L186.082 61.5323L187.712 64.1799H186.56L185.259 62.0434H184.387V64.1799H183.418V62.0434H182.543L181.241 64.1799H180.086L181.716 61.5323L180.212 59.1123H181.343L182.555 61.129H183.418V59.1123H184.387Z" fill="#7663A9"/>
<path d="M188.434 61.8997L188.422 59.1123H189.452L189.46 60.5499H189.488C189.881 60.0547 190.489 59.7672 191.13 59.7792C192.395 59.7792 193.416 60.7057 193.416 61.9995C193.416 63.3093 192.375 64.2877 190.939 64.2877C189.508 64.2917 188.438 63.2894 188.434 61.8997ZM190.915 63.4012C191.734 63.4012 192.322 62.8341 192.322 62.0474C192.322 61.2607 191.726 60.6817 190.915 60.6817C190.104 60.6817 189.512 61.2607 189.512 62.0474C189.508 62.8341 190.108 63.4012 190.915 63.4012Z" fill="#7663A9"/>
</g>
<defs>
<clipPath id="clip0_1135_180320">
<rect width="195" height="55.1087" fill="white" transform="translate(14 12.4456)"/>
</clipPath>
</defs>
</svg>
